<?xml version="1.0" encoding="utf-8"?>
<!-- Generator: Adobe Illustrator 23.0.6, SVG Export Plug-In . SVG Version: 6.00 Build 0)  -->
<svg version="1.1" id="Layer_1" xmlns="http://www.w3.org/2000/svg" xmlns:xlink="http://www.w3.org/1999/xlink" x="0px" y="0px"
	 viewBox="0 0 500 500" style="enable-background:new 0 0 500 500;" xml:space="preserve">
<style type="text/css">
	.st0{fill-rule:evenodd;clip-rule:evenodd;fill:#F37346;}
</style>
<g>
	<g>
		<path class="st0" d="M300.1,187.3c22.4-9.9,59.6-28.2,38.7-73.5c-12.3-26.6,24-51.8,24-51.8s-20.1,6.6-36.4,20.3
			c-16.2,13.8-17.5,40.1-13.2,52.5C320.3,154.5,313.3,167.6,300.1,187.3z M49.5,199.9c0,100.6,89.8,175.5,200.5,175.5
			c110.7,0,200.5-74.8,200.5-175.5L49.5,199.9L49.5,199.9z M149.7,325.2L74.5,224.9c0,0,75.2,75.2,112.8,87.7L149.7,325.2z
			 M276.1,106.5c-12.3-29.3,24-57,24-57s-20.1,7.2-36.4,22.4c-16.2,15.2-17.5,44.2-13.2,57.7c7,21.7,0,36.1-13.2,57.7
			C259.9,176.5,297,156.3,276.1,106.5z M137.2,450.5h50.1l50.1-75.2h-50.1L137.2,450.5z M262.5,375.3l50.1,75.2h50.1l-50.1-75.2
			L262.5,375.3L262.5,375.3z M205.7,116c-9.8-21.3,19.2-41.5,19.2-41.5s-16.1,5.3-29.1,16.3c-13,11-14,32.1-10.5,42
			c5.6,15.7,0,26.2-10.5,42C192.8,166.9,222.5,152.2,205.7,116z"/>
	</g>
</g>
</svg>
