<?xml version="1.0" encoding="utf-8"?>
<!-- Generator: Adobe Illustrator 23.0.6, SVG Export Plug-In . SVG Version: 6.00 Build 0)  -->
<svg version="1.1" id="Layer_1" xmlns="http://www.w3.org/2000/svg" xmlns:xlink="http://www.w3.org/1999/xlink" x="0px" y="0px"
	 viewBox="0 0 500 500" style="enable-background:new 0 0 500 500;" xml:space="preserve">
<style type="text/css">
	.st0{fill:#F37346;}
</style>
<path class="st0" d="M250,256.3c-35,0-63.3-29.4-63.3-65.6c0-36.2,28.3-65.6,63.3-65.6s63.3,29.4,63.3,65.6
	C313.3,227,285,256.3,250,256.3 M250,46.1c-77.4,0-140.1,65-140.1,145.1c0,75.7,63.5,173.4,105.8,220.9
	c15.8,17.8,34.3,41.7,34.3,41.7s19.8-24.1,36.8-42.3c42.3-45.6,103.3-137,103.3-220.3C390.1,111.1,327.4,46.1,250,46.1"/>
</svg>
